<svg width="32" height="32" viewBox="0 0 32 32" fill="none" xmlns="http://www.w3.org/2000/svg">
  <circle cx="16" cy="16" r="16" fill="#7C3AED"/>
  <circle cx="16" cy="13" r="8" fill="#F3E8FF"/>
  <circle cx="13" cy="11" r="1.5" fill="#7C3AED"/>
  <circle cx="19" cy="11" r="1.5" fill="#7C3AED"/>
  <path d="M13 16C13 16.5523 13.4477 17 14 17H18C18.5523 17 19 16.5523 19 16C19 15.4477 18.5523 15 18 15H14C13.4477 15 13 15.4477 13 16Z" fill="#7C3AED"/>
  <circle cx="10" cy="15" r="2" fill="#F3E8FF"/>
  <circle cx="22" cy="15" r="2" fill="#F3E8FF"/>
  <path d="M8 20C10 22 14 24 16 24C18 24 22 22 24 20" stroke="#7C3AED" stroke-width="2" stroke-linecap="round" fill="none"/>
</svg>